# xmcd CD database file
#
# Track frame offsets:
#	182
#	18060
#	35600
#	50902
#	64050
#	80410
#	95475
#	116522
#	127502
#	142427
#	163250
#	173085
#
# Disc length: 2511 seconds
#
# Revision: 1
# Processed by: cddbd v1.5PL3 Copyright (c) Steve Scherf et al.
# Submitted via: CDex 1.51
#
DISCID=a109cd0c
DTITLE=Gary Primich - Gary Primich
DYEAR=1990
DGENRE=Blues
TTITLE0=Sweet Fine Angel
TTITLE1=Early in the Morning
TTITLE2=The Sound of Money Talking
TTITLE3=Real Gone Lover
TTITLE4=Hustler
TTITLE5=Creepin'
TTITLE6=Cadillac Blues
TTITLE7=I Can't Stop Loving You
TTITLE8=That Girl Radiates That Charm
TTITLE9=I Want That Thang
TTITLE10=Down the Road
TTITLE11=Cookin' at Sam's
EXTD=YEAR: 1990
EXTT0=
EXTT1=
EXTT2=
EXTT3=
EXTT4=
EXTT5=
EXTT6=
EXTT7=
EXTT8=
EXTT9=
EXTT10=
EXTT11=
PLAYORDER=
